<svg width="512" height="512" viewBox="0 0 512 512" fill="none" xmlns="http://www.w3.org/2000/svg">
<path fill-rule="evenodd" clip-rule="evenodd" d="M268.034 76.4247C236.543 38.8945 198.197 31.0885 152.999 53.0066C183.479 51.4556 204.254 62.0058 215.321 84.6571C221.661 97.6102 220.323 111.696 218.905 127.41C216.533 152.827 213.861 182.4 243.122 217.273C274.614 254.803 312.959 262.609 358.158 240.691C327.703 242.272 306.944 231.709 295.881 209.002C289.541 196.049 290.88 181.963 292.274 166.268C294.669 140.832 297.341 111.259 268.08 76.3862L268.034 76.4247Z" fill="url(#paint0_linear_7_17)"/>
<path fill-rule="evenodd" clip-rule="evenodd" d="M184.107 365.152C152.615 402.682 151.586 441.8 181.02 482.506C174.2 452.758 180.982 430.467 201.368 415.634C213.023 407.142 227.127 406.014 242.849 404.681C268.292 402.604 297.88 400.1 327.141 365.228C358.633 327.697 359.662 288.579 330.228 247.873C337.074 277.591 330.276 299.869 309.834 314.707C298.179 323.199 284.075 324.327 268.377 325.679C242.911 327.737 213.322 330.241 184.061 365.113L184.107 365.152Z" fill="url(#paint1_linear_7_17)"/>
<defs>
<linearGradient id="paint0_linear_7_17" x1="219.052" y1="20.469" x2="132.626" y2="106.537" gradientUnits="userSpaceOnUse">
<stop offset="0.0249584" stop-color="#3B82F6"/>
<stop offset="1" stop-color="#67E8F9"/>
</linearGradient>
<linearGradient id="paint1_linear_7_17" x1="137.507" y1="423.107" x2="237.275" y2="493.274" gradientUnits="userSpaceOnUse">
<stop offset="0.0249584" stop-color="#3B82F6"/>
<stop offset="1" stop-color="#67E8F9"/>
</linearGradient>
</defs>
</svg>
